<?xml version="1.0" encoding="utf-8"?>
<!-- Generator: Adobe Illustrator 15.0.0, SVG Export Plug-In . SVG Version: 6.00 Build 0)  -->
<!DOCTYPE svg PUBLIC "-//W3C//DTD SVG 1.1//EN" "http://www.w3.org/Graphics/SVG/1.1/DTD/svg11.dtd">
<svg version="1.1" id="Layer_1" xmlns="http://www.w3.org/2000/svg" xmlns:xlink="http://www.w3.org/1999/xlink" x="0px" y="0px"
	 width="136px" height="164px" viewBox="0 0 136 164" enable-background="new 0 0 136 164" xml:space="preserve">
<g>
	<path fill="#FFFFFF" d="M93.133,38.767c8.121,0,14.945-5.542,16.9-13.049l5.467,0.814c0.107,0.016,0.215,0.024,0.32,0.024
		c1.051,0,1.971-0.77,2.131-1.84c0.176-1.178-0.639-2.276-1.816-2.451l-5.541-0.825c0.002-0.046,0.004-0.091,0.004-0.138
		c0-0.182-0.006-0.362-0.014-0.542c0,0-0.451-6.518-1.074-9.237c-0.621-2.719-2.535-3.296-2.535-3.296
		C97.205,6.015,87.203,5.789,84.6,5.789s-3.158,1.332-3.158,1.332l-3.15,4.996l-0.01-0.003c-0.076,0.122-0.146,0.245-0.219,0.368
		l-0.027,0.043v0c-1.502,2.58-2.367,5.576-2.367,8.777C75.668,30.948,83.488,38.767,93.133,38.767z"/>
	<path fill="#FFFFFF" d="M131.535,78.076v-0.002l-26.742-2.168l-9.246-21.112c0,0-0.461-2.774-6.008-8.476
		c-5.549-5.702-16.799-3.39-16.799-3.39s-23.886,4.469-31.745,6.318c-7.86,1.85-8.168,9.863-8.168,9.863l-0.632,4.519l-15.178-2.941
		c-0.191-0.037-0.381-0.055-0.568-0.055c-1.407,0-2.671,1-2.948,2.429L6.09,101.303c-0.314,1.62,0.754,3.202,2.375,3.516
		l51.196,9.923c0.115,0.022,0.23,0.024,0.346,0.033c0.001,0,0.002,0,0.002,0c-0.728,0.104-1.291-0.035-1.291-0.035l-9.4-1.849
		l-3.082,17.105l-23.56,20.363c-1.701,1.361-2.792,3.453-2.792,5.801c0,4.104,3.326,7.43,7.429,7.43c2.035,0,3.878-0.818,5.22-2.145
		c0,0,27.725-22.05,29.575-23.591c1.85-1.54,2.773-3.853,2.773-3.853s4.541-13.948,5.779-16.874
		c0.848-2.004,4.932-1.079,4.932-1.079l22.885,8.631l7.615,29.062c0.082,0.63,0.242,1.234,0.473,1.804h0.002
		c1.098,2.728,3.77,4.654,6.889,4.654c4.104,0,7.43-3.327,7.43-7.43c0-0.599-0.072-1.179-0.207-1.736
		c-0.842-4.965-4.604-27.046-5.561-31.826c-1.078-5.394-4.621-6.934-4.621-6.934s-21.268-11.558-22.654-12.329
		c-1.387-0.77-1.078-2.774-1.078-2.774l3.93-14.331l2.773,5.856c0,0,1.619,3.274,4.084,3.391l33.357,0.82
		c4.104,0,7.43-3.326,7.43-7.431C138.338,81.586,135.346,78.396,131.535,78.076z M60.104,62.807l-1.789,5.88l9.898,1.919
		l-20.214-3.917l0.548-2.496L60.104,62.807z M57.855,108.28l-45.304-8.781l6.27-32.353l12.542,2.431l-1.618,11.567l-0.64,4.406
		c-0.005,0.026-0.008,0.056-0.012,0.082l-0.018,0.127h0.002c-0.04,0.312-0.063,0.629-0.063,0.951c0,4.104,3.327,7.429,7.43,7.429
		c4.103,0,7.429-3.325,7.429-7.429c0-0.318-0.021-0.63-0.061-0.937l2.901-13.223l17.413,3.374L57.855,108.28z"/>
	<path fill="#FFFFFF" d="M25.05,17.008h38.027c1.1,0,2-0.896,2-1.99c0-1.094-0.9-1.99-2-1.99H25.05c-1.1,0-2,0.896-2,1.99
		C23.05,16.112,23.95,17.008,25.05,17.008z"/>
	<path fill="#FFFFFF" d="M38.08,23.025c-1.1,0-2,0.896-2,1.99c0,1.094,0.9,1.99,2,1.99h22.959c1.1,0,2-0.896,2-1.99
		c0-1.095-0.9-1.99-2-1.99H38.08z"/>
</g>
<path fill="#3A3A3A" d="M87.098,32.732c8.121,0,14.945-5.542,16.9-13.049l5.467,0.814c0.107,0.016,0.215,0.024,0.32,0.024
	c1.051,0,1.971-0.77,2.131-1.84c0.176-1.178-0.639-2.276-1.816-2.451l-5.541-0.825c0.002-0.046,0.004-0.091,0.004-0.138
	c0-0.182-0.006-0.362-0.014-0.542c0,0-0.451-6.518-1.074-9.237c-0.621-2.719-2.535-3.296-2.535-3.296
	C91.17-0.02,81.168-0.246,78.564-0.246s-3.158,1.332-3.158,1.332l-3.15,4.996l-0.01-0.003C72.17,6.2,72.1,6.324,72.027,6.447
	L72,6.49v0c-1.502,2.58-2.367,5.576-2.367,8.777C69.633,24.913,77.453,32.732,87.098,32.732z"/>
<path fill="#3A3A3A" d="M125.5,72.041v-0.002l-26.742-2.168l-9.246-21.112c0,0-0.461-2.774-6.008-8.476
	c-5.549-5.702-16.799-3.39-16.799-3.39S42.819,41.362,34.96,43.21c-7.86,1.85-8.168,9.863-8.168,9.863l-3.082,22.036l-0.64,4.406
	c-0.005,0.026-0.008,0.056-0.012,0.082l-0.018,0.127h0.002c-0.04,0.312-0.063,0.629-0.063,0.951c0,4.104,3.327,7.429,7.43,7.429
	c4.103,0,7.429-3.325,7.429-7.429c0-0.318-0.021-0.63-0.061-0.937l4.734-21.581l11.557-1.386l-1.789,5.88l9.898,1.919
	c1.62,0.313,2.688,1.896,2.375,3.517l-7.412,38.243c-0.277,1.43-1.541,2.43-2.948,2.43c-0.072,0-0.146-0.016-0.22-0.021
	c-0.728,0.104-1.291-0.035-1.291-0.035l-9.4-1.849l-3.082,17.105l-23.56,20.363c-1.701,1.361-2.792,3.453-2.792,5.801
	c0,4.104,3.326,7.43,7.429,7.43c2.035,0,3.878-0.818,5.22-2.145c0,0,27.725-22.05,29.575-23.591c1.85-1.54,2.773-3.853,2.773-3.853
	s4.541-13.948,5.779-16.874c0.848-2.004,4.932-1.079,4.932-1.079l22.885,8.631l7.615,29.062c0.082,0.63,0.242,1.234,0.473,1.804
	h0.002c1.098,2.728,3.77,4.654,6.889,4.654c4.104,0,7.43-3.327,7.43-7.43c0-0.599-0.072-1.179-0.207-1.736
	c-0.842-4.965-4.604-27.046-5.561-31.826c-1.078-5.394-4.621-6.934-4.621-6.934S83.193,94.682,81.807,93.91
	c-1.387-0.77-1.078-2.774-1.078-2.774l3.93-14.331l2.773,5.856c0,0,1.619,3.274,4.084,3.391l33.357,0.82
	c4.104,0,7.43-3.326,7.43-7.431C132.303,75.551,129.311,72.36,125.5,72.041z"/>
<path fill="#F0C42E" d="M53.971,108.739c0.001,0,0.002,0,0.002,0c0.073,0.006,0.147,0.021,0.22,0.021c1.407,0,2.671-1,2.948-2.43
	l7.412-38.243c0.313-1.621-0.755-3.203-2.375-3.517l-20.214-3.917l-1.286,5.862l17.413,3.374l-6.271,32.354L6.516,93.464
	l6.27-32.353l12.542,2.431l0.832-5.95L10.982,54.65c-0.191-0.037-0.381-0.055-0.568-0.055c-1.407,0-2.671,1-2.948,2.429
	L0.055,95.268c-0.314,1.62,0.754,3.202,2.375,3.516l51.196,9.923C53.74,108.729,53.855,108.73,53.971,108.739z"/>
<path fill="#F0C52E" d="M59.042,8.982c0,1.095-0.9,1.99-2,1.99H19.015c-1.1,0-2-0.896-2-1.99c0-1.094,0.9-1.99,2-1.99h38.027
	C58.142,6.993,59.042,7.888,59.042,8.982z"/>
<path fill="#F0C52E" d="M57.004,18.98c0,1.094-0.9,1.99-2,1.99H32.044c-1.1,0-2-0.896-2-1.99c0-1.095,0.9-1.99,2-1.99h22.959
	C56.104,16.99,57.004,17.886,57.004,18.98z"/>
</svg>
